<svg width="245" height="122" viewBox="0 0 245 122" fill="none" xmlns="http://www.w3.org/2000/svg">
<g filter="url(#filter0_d_63_103)">
<mask id="path-1-outside-1_63_103" maskUnits="userSpaceOnUse" x="-0.391235" y="-0.25" width="244" height="119" fill="black">
<rect fill="white" x="-0.391235" y="-0.25" width="244" height="119"/>
<path d="M20.1322 62.3438C25.5684 65.1432 30.9558 66.0872 36.2943 65.1758C41.6654 64.2643 45.8321 62.5716 48.7943 60.0977C51.7566 57.6237 52.961 54.9219 52.4076 51.9922C51.8868 49.0299 48.4525 46.9303 42.1049 45.6934C35.92 44.5215 30.8907 44.5215 27.017 45.6934C23.1758 46.8652 20.3926 48.5091 18.6674 50.625C16.9421 52.7409 16.226 54.9544 16.5189 57.2656C16.8119 59.5768 18.0163 61.2695 20.1322 62.3438ZM22.2318 79.2871C16.9258 77.9525 13.3614 74.6647 11.5385 69.4238C9.74809 64.1829 9.52022 58.6328 10.8549 52.7734C12.1895 46.8815 15.0052 41.4941 19.3021 36.6113C23.6316 31.696 29.2631 28.8802 36.1967 28.1641C46.3855 27.1224 52.9447 28.7826 55.8744 33.1445C58.8041 37.474 59.8783 43.3496 59.097 50.7715C58.8041 53.3105 57.7136 56.4844 55.8256 60.293C53.9701 64.1016 51.431 67.6497 48.2084 70.9375C45.0183 74.2253 41.2097 76.7806 36.7826 78.6035C32.3881 80.4264 27.5378 80.6543 22.2318 79.2871ZM89.808 78.75H83.558H77.308H71.058V72.5H64.808V66.25V60V53.75V47.5H71.058V41.25H77.308V35H83.558H89.808H96.058V41.25H102.308V47.5V53.75V60V66.25V72.5H96.058V78.75H89.808ZM83.558 66.25H89.808V60H96.058V53.75V47.5H89.808V41.25H83.558V47.5H77.308V53.75V60V66.25H83.558ZM124.62 69.082C128.104 71.3281 132.514 70.8724 137.853 67.7148C143.224 64.5247 145.958 60.3743 146.056 55.2637C146.121 51.6829 144.542 50.0716 141.32 50.4297C138.13 50.7878 134.842 52.0736 131.456 54.2871C128.104 56.4681 125.451 59.056 123.497 62.0508C121.577 65.0456 121.951 67.3893 124.62 69.082ZM119.347 103.506C116.841 99.9251 114.936 95.6608 113.634 90.7129C112.332 85.765 111.6 80.7031 111.437 75.5273C111.307 70.3516 111.714 65.3385 112.658 60.4883C113.634 55.638 115.115 51.5202 117.101 48.1348C119.542 44.0658 121.756 43.8542 123.742 47.5C124.49 48.9648 125.288 49.0462 126.134 47.7441C127.013 46.4421 128.136 45.0586 129.503 43.5938C135.167 37.5065 139.92 33.6654 143.761 32.0703C147.602 30.4753 150.646 30.3125 152.892 31.582C155.171 32.819 156.717 35.0814 157.531 38.3691C158.344 41.6569 158.556 45.1237 158.165 48.7695C157.71 52.8385 156.408 57.1354 154.259 61.6602C152.111 66.1849 149.474 70.0749 146.349 73.3301C143.257 76.5853 139.855 78.75 136.144 79.8242C132.433 80.8984 128.803 80.0195 125.255 77.1875C126.134 80.0195 127.973 82.9167 130.773 85.8789C133.572 88.8737 135.33 91.5918 136.046 94.0332C137.186 97.8092 137.218 100.788 136.144 102.969C135.102 105.182 133.556 106.647 131.505 107.363C129.487 108.112 127.306 108.145 124.962 107.461C122.619 106.777 120.747 105.459 119.347 103.506ZM167.685 53.8965C165.536 51.9434 164.169 49.1276 163.583 45.4492C162.997 41.7383 164.999 37.8971 169.589 33.9258C173.593 30.5078 178.378 27.627 183.945 25.2832C189.511 22.9395 194.801 21.7676 199.814 21.7676C203.395 21.7676 205.901 23.0371 207.333 25.5762C208.798 28.1152 209.368 30.931 209.042 34.0234C208.749 37.1159 207.691 39.9805 205.869 42.6172C204.046 45.2539 201.669 46.6862 198.74 46.9141C193.922 47.3047 189.365 48.2161 185.068 49.6484C180.803 51.0807 180.543 53.1478 184.286 55.8496C185.947 57.0866 188.063 58.6328 190.634 60.4883C193.206 62.3438 194.313 64.7526 193.954 67.7148C193.303 72.8255 190.064 76.7643 184.238 79.5312C178.411 82.2982 173.642 82.998 169.931 81.6309C165.927 80.1335 165.406 78.6523 168.369 77.1875C171.363 75.7227 174.212 73.8184 176.913 71.4746C179.192 69.5215 180.266 67.7474 180.136 66.1523C180.006 64.5573 179.241 63.0762 177.841 61.709C176.474 60.3092 174.781 58.9909 172.763 57.7539C170.777 56.4844 169.085 55.1986 167.685 53.8965ZM213.874 78.75V72.5V66.25H220.124H226.374V72.5H220.124V78.75H213.874ZM213.874 60V53.75V47.5V41.25V35V28.75H220.124V22.5V16.25V10H226.374H232.624V16.25V22.5V28.75V35H226.374V41.25V47.5H220.124V53.75V60H213.874Z"/>
</mask>
<g clip-path="url(#paint0_diamond_63_103_clip_path)" data-figma-skip-parse="true"><g transform="matrix(0.00155382 0.09 -0.192956 0.00310457 151.559 84.25)"><rect x="0" y="0" width="1199.23" height="795.984" fill="url(#paint0_diamond_63_103)" opacity="1" shape-rendering="crispEdges"/><rect x="0" y="0" width="1199.23" height="795.984" transform="scale(1 -1)" fill="url(#paint0_diamond_63_103)" opacity="1" shape-rendering="crispEdges"/><rect x="0" y="0" width="1199.23" height="795.984" transform="scale(-1 1)" fill="url(#paint0_diamond_63_103)" opacity="1" shape-rendering="crispEdges"/><rect x="0" y="0" width="1199.23" height="795.984" transform="scale(-1)" fill="url(#paint0_diamond_63_103)" opacity="1" shape-rendering="crispEdges"/></g></g><path d="M20.1322 62.3438C25.5684 65.1432 30.9558 66.0872 36.2943 65.1758C41.6654 64.2643 45.8321 62.5716 48.7943 60.0977C51.7566 57.6237 52.961 54.9219 52.4076 51.9922C51.8868 49.0299 48.4525 46.9303 42.1049 45.6934C35.92 44.5215 30.8907 44.5215 27.017 45.6934C23.1758 46.8652 20.3926 48.5091 18.6674 50.625C16.9421 52.7409 16.226 54.9544 16.5189 57.2656C16.8119 59.5768 18.0163 61.2695 20.1322 62.3438ZM22.2318 79.2871C16.9258 77.9525 13.3614 74.6647 11.5385 69.4238C9.74809 64.1829 9.52022 58.6328 10.8549 52.7734C12.1895 46.8815 15.0052 41.4941 19.3021 36.6113C23.6316 31.696 29.2631 28.8802 36.1967 28.1641C46.3855 27.1224 52.9447 28.7826 55.8744 33.1445C58.8041 37.474 59.8783 43.3496 59.097 50.7715C58.8041 53.3105 57.7136 56.4844 55.8256 60.293C53.9701 64.1016 51.431 67.6497 48.2084 70.9375C45.0183 74.2253 41.2097 76.7806 36.7826 78.6035C32.3881 80.4264 27.5378 80.6543 22.2318 79.2871ZM89.808 78.75H83.558H77.308H71.058V72.5H64.808V66.25V60V53.75V47.5H71.058V41.25H77.308V35H83.558H89.808H96.058V41.25H102.308V47.5V53.75V60V66.25V72.5H96.058V78.75H89.808ZM83.558 66.25H89.808V60H96.058V53.75V47.5H89.808V41.25H83.558V47.5H77.308V53.75V60V66.25H83.558ZM124.62 69.082C128.104 71.3281 132.514 70.8724 137.853 67.7148C143.224 64.5247 145.958 60.3743 146.056 55.2637C146.121 51.6829 144.542 50.0716 141.32 50.4297C138.13 50.7878 134.842 52.0736 131.456 54.2871C128.104 56.4681 125.451 59.056 123.497 62.0508C121.577 65.0456 121.951 67.3893 124.62 69.082ZM119.347 103.506C116.841 99.9251 114.936 95.6608 113.634 90.7129C112.332 85.765 111.6 80.7031 111.437 75.5273C111.307 70.3516 111.714 65.3385 112.658 60.4883C113.634 55.638 115.115 51.5202 117.101 48.1348C119.542 44.0658 121.756 43.8542 123.742 47.5C124.49 48.9648 125.288 49.0462 126.134 47.7441C127.013 46.4421 128.136 45.0586 129.503 43.5938C135.167 37.5065 139.92 33.6654 143.761 32.0703C147.602 30.4753 150.646 30.3125 152.892 31.582C155.171 32.819 156.717 35.0814 157.531 38.3691C158.344 41.6569 158.556 45.1237 158.165 48.7695C157.71 52.8385 156.408 57.1354 154.259 61.6602C152.111 66.1849 149.474 70.0749 146.349 73.3301C143.257 76.5853 139.855 78.75 136.144 79.8242C132.433 80.8984 128.803 80.0195 125.255 77.1875C126.134 80.0195 127.973 82.9167 130.773 85.8789C133.572 88.8737 135.33 91.5918 136.046 94.0332C137.186 97.8092 137.218 100.788 136.144 102.969C135.102 105.182 133.556 106.647 131.505 107.363C129.487 108.112 127.306 108.145 124.962 107.461C122.619 106.777 120.747 105.459 119.347 103.506ZM167.685 53.8965C165.536 51.9434 164.169 49.1276 163.583 45.4492C162.997 41.7383 164.999 37.8971 169.589 33.9258C173.593 30.5078 178.378 27.627 183.945 25.2832C189.511 22.9395 194.801 21.7676 199.814 21.7676C203.395 21.7676 205.901 23.0371 207.333 25.5762C208.798 28.1152 209.368 30.931 209.042 34.0234C208.749 37.1159 207.691 39.9805 205.869 42.6172C204.046 45.2539 201.669 46.6862 198.74 46.9141C193.922 47.3047 189.365 48.2161 185.068 49.6484C180.803 51.0807 180.543 53.1478 184.286 55.8496C185.947 57.0866 188.063 58.6328 190.634 60.4883C193.206 62.3438 194.313 64.7526 193.954 67.7148C193.303 72.8255 190.064 76.7643 184.238 79.5312C178.411 82.2982 173.642 82.998 169.931 81.6309C165.927 80.1335 165.406 78.6523 168.369 77.1875C171.363 75.7227 174.212 73.8184 176.913 71.4746C179.192 69.5215 180.266 67.7474 180.136 66.1523C180.006 64.5573 179.241 63.0762 177.841 61.709C176.474 60.3092 174.781 58.9909 172.763 57.7539C170.777 56.4844 169.085 55.1986 167.685 53.8965ZM213.874 78.75V72.5V66.25H220.124H226.374V72.5H220.124V78.75H213.874ZM213.874 60V53.75V47.5V41.25V35V28.75H220.124V22.5V16.25V10H226.374H232.624V16.25V22.5V28.75V35H226.374V41.25V47.5H220.124V53.75V60H213.874Z" data-figma-gradient-fill="{&#34;type&#34;:&#34;GRADIENT_DIAMOND&#34;,&#34;stops&#34;:[{&#34;color&#34;:{&#34;r&#34;:0.97254902124404907,&#34;g&#34;:0.67058825492858887,&#34;b&#34;:0.78039216995239258,&#34;a&#34;:1.0},&#34;position&#34;:0.0},{&#34;color&#34;:{&#34;r&#34;:0.77647060155868530,&#34;g&#34;:0.92156863212585449,&#34;b&#34;:0.55294120311737061,&#34;a&#34;:1.0},&#34;position&#34;:1.0}],&#34;stopsVar&#34;:[{&#34;color&#34;:{&#34;r&#34;:0.97254902124404907,&#34;g&#34;:0.67058825492858887,&#34;b&#34;:0.78039216995239258,&#34;a&#34;:1.0},&#34;position&#34;:0.0},{&#34;color&#34;:{&#34;r&#34;:0.77647060155868530,&#34;g&#34;:0.92156863212585449,&#34;b&#34;:0.55294120311737061,&#34;a&#34;:1.0},&#34;position&#34;:1.0}],&#34;transform&#34;:{&#34;m00&#34;:3.1076335906982422,&#34;m01&#34;:-385.91213989257812,&#34;m02&#34;:342.96170043945312,&#34;m10&#34;:180.0,&#34;m11&#34;:6.2091326713562012,&#34;m12&#34;:-8.8545637130737305},&#34;opacity&#34;:1.0,&#34;blendMode&#34;:&#34;NORMAL&#34;,&#34;visible&#34;:true}"/>
<path d="M20.1322 62.3438L24.7105 53.4533L24.6848 53.4401L24.6591 53.4271L20.1322 62.3438ZM36.2943 65.1758L34.6213 55.3167L34.6113 55.3184L36.2943 65.1758ZM52.4076 51.9922L42.5587 53.7239L42.5696 53.7861L42.5814 53.8483L52.4076 51.9922ZM42.1049 45.6934L44.0176 35.878L43.992 35.873L43.9665 35.8682L42.1049 45.6934ZM27.017 45.6934L24.1214 36.1218L24.1101 36.1252L24.0989 36.1286L27.017 45.6934ZM22.2318 79.2871L24.727 69.6034L24.6991 69.5962L24.6712 69.5892L22.2318 79.2871ZM11.5385 69.4238L2.07539 72.6565L2.08437 72.6828L2.09348 72.709L11.5385 69.4238ZM10.8549 52.7734L20.6051 54.9943L20.6078 54.9827L10.8549 52.7734ZM19.3021 36.6113L11.7979 30.0017L11.795 30.0051L19.3021 36.6113ZM36.1967 28.1641L35.1796 18.2159L35.1693 18.217L36.1967 28.1641ZM55.8744 33.1445L47.573 38.7201L47.5827 38.7345L47.5924 38.7489L55.8744 33.1445ZM59.097 50.7715L69.0311 51.9177L69.0369 51.8681L69.0421 51.8183L59.097 50.7715ZM55.8256 60.293L46.866 55.8515L46.8507 55.8823L46.8357 55.9133L55.8256 60.293ZM48.2084 70.9375L41.067 63.9375L41.0492 63.9556L41.0315 63.9738L48.2084 70.9375ZM36.7826 78.6035L32.9751 69.3567L32.9631 69.3617L32.951 69.3667L36.7826 78.6035ZM20.1322 62.3438L15.5539 71.2342C22.6566 74.8918 30.2301 76.3558 37.9773 75.0331L36.2943 65.1758L34.6113 55.3184C31.6815 55.8186 28.4802 55.3946 24.7105 53.4533L20.1322 62.3438ZM36.2943 65.1758L37.9674 75.0348C44.4022 73.9429 50.4376 71.7541 55.2044 67.7729L48.7943 60.0977L42.3842 52.4224C41.2266 53.3892 38.9286 54.5858 34.6213 55.3167L36.2943 65.1758ZM48.7943 60.0977L55.2044 67.7729C59.9999 63.768 63.6617 57.6954 62.2338 50.1361L52.4076 51.9922L42.5814 53.8483C42.5424 53.6419 42.519 53.3464 42.5592 52.9983C42.5995 52.6495 42.6913 52.3561 42.7857 52.1442C42.9641 51.7442 43.0376 51.8766 42.3842 52.4224L48.7943 60.0977ZM52.4076 51.9922L62.2565 50.2605C61.346 45.0818 57.9509 41.6775 54.6574 39.664C51.4967 37.7316 47.7387 36.6031 44.0176 35.878L42.1049 45.6934L40.1921 55.5087C41.4386 55.7516 42.3893 56.0081 43.091 56.2474C43.804 56.4906 44.1403 56.6757 44.2251 56.7276C44.3094 56.7791 43.9952 56.6067 43.5908 56.0892C43.1466 55.5207 42.7315 54.7066 42.5587 53.7239L52.4076 51.9922ZM42.1049 45.6934L43.9665 35.8682C36.9946 34.5472 30.1607 34.2947 24.1214 36.1218L27.017 45.6934L29.9126 55.265C31.6206 54.7482 34.8454 54.4958 40.2432 55.5186L42.1049 45.6934ZM27.017 45.6934L24.0989 36.1286C19.206 37.6213 14.357 40.087 10.9172 44.3056L18.6674 50.625L26.4175 56.9444C26.4109 56.9525 26.5764 56.7449 27.1343 56.4154C27.7028 56.0797 28.5977 55.6661 29.935 55.2581L27.017 45.6934ZM18.6674 50.625L10.9172 44.3056C7.78486 48.1471 5.9016 53.0269 6.59831 58.5232L16.5189 57.2656L26.4395 56.0081C26.456 56.1379 26.4619 56.3004 26.445 56.4817C26.428 56.6631 26.3919 56.8231 26.3507 56.9503C26.2668 57.2097 26.2054 57.2046 26.4175 56.9444L18.6674 50.625ZM16.5189 57.2656L6.59831 58.5232C7.31745 64.1964 10.5988 68.7187 15.6053 71.2604L20.1322 62.3438L24.6591 53.4271C24.8359 53.5168 25.3292 53.8236 25.7899 54.471C26.2553 55.1251 26.4042 55.729 26.4395 56.0081L16.5189 57.2656ZM22.2318 79.2871L24.6712 69.5892C22.6869 69.0901 21.7189 68.2532 20.9834 66.1386L11.5385 69.4238L2.09348 72.709C5.00381 81.0762 11.1648 86.8149 19.7925 88.985L22.2318 79.2871ZM11.5385 69.4238L21.0015 66.1911C19.8619 62.855 19.6462 59.2041 20.6051 54.9943L10.8549 52.7734L1.1046 50.5525C-0.605783 58.0615 -0.365685 65.5108 2.07539 72.6565L11.5385 69.4238ZM10.8549 52.7734L20.6078 54.9827C21.545 50.8449 23.5297 46.9444 26.8093 43.2176L19.3021 36.6113L11.795 30.0051C6.48081 36.0439 2.83394 42.9181 1.10194 50.5642L10.8549 52.7734ZM19.3021 36.6113L26.8063 43.221C29.36 40.3216 32.6164 38.5871 37.2241 38.1111L36.1967 28.1641L35.1693 18.217C25.9097 19.1734 17.9031 23.0703 11.7979 30.0017L19.3021 36.6113ZM36.1967 28.1641L37.2137 38.1122C41.681 37.6555 44.5829 37.8866 46.304 38.3222C47.9009 38.7264 47.8418 39.1203 47.573 38.7201L55.8744 33.1445L64.1758 27.569C57.8037 18.0817 45.6414 17.1463 35.1796 18.2159L36.1967 28.1641ZM55.8744 33.1445L47.5924 38.7489C48.736 40.4388 49.7902 43.6614 49.152 49.7246L59.097 50.7715L69.0421 51.8183C69.9664 43.0378 68.8722 34.5091 64.1564 27.5402L55.8744 33.1445ZM59.097 50.7715L49.163 49.6252C49.0612 50.5071 48.5348 52.4852 46.866 55.8515L55.8256 60.293L64.7851 64.7345C66.8924 60.4835 68.547 56.114 69.0311 51.9177L59.097 50.7715ZM55.8256 60.293L46.8357 55.9133C45.4905 58.6744 43.6016 61.3516 41.067 63.9375L48.2084 70.9375L55.3498 77.9375C59.2604 73.9479 62.4497 69.5287 64.8155 64.6727L55.8256 60.293ZM48.2084 70.9375L41.0315 63.9738C38.8391 66.2333 36.1928 68.0318 32.9751 69.3567L36.7826 78.6035L40.5901 87.8503C46.2266 85.5294 51.1974 82.2172 55.3852 77.9012L48.2084 70.9375ZM36.7826 78.6035L32.951 69.3667C30.8563 70.2356 28.2636 70.5147 24.727 69.6034L22.2318 79.2871L19.7366 88.9708C26.812 90.7939 33.9198 90.6173 40.6142 87.8403L36.7826 78.6035ZM71.058 78.75H61.058V88.75H71.058V78.75ZM71.058 72.5H81.058V62.5H71.058V72.5ZM64.808 72.5H54.808V82.5H64.808V72.5ZM64.808 47.5V37.5H54.808V47.5H64.808ZM71.058 47.5V57.5H81.058V47.5H71.058ZM71.058 41.25V31.25H61.058V41.25H71.058ZM77.308 41.25V51.25H87.308V41.25H77.308ZM77.308 35V25H67.308V35H77.308ZM96.058 35H106.058V25H96.058V35ZM96.058 41.25H86.058V51.25H96.058V41.25ZM102.308 41.25H112.308V31.25H102.308V41.25ZM102.308 72.5V82.5H112.308V72.5H102.308ZM96.058 72.5V62.5H86.058V72.5H96.058ZM96.058 78.75V88.75H106.058V78.75H96.058ZM89.808 66.25V76.25H99.808V66.25H89.808ZM89.808 60V50H79.808V60H89.808ZM96.058 60V70H106.058V60H96.058ZM96.058 47.5H106.058V37.5H96.058V47.5ZM89.808 47.5H79.808V57.5H89.808V47.5ZM89.808 41.25H99.808V31.25H89.808V41.25ZM83.558 41.25V31.25H73.558V41.25H83.558ZM83.558 47.5V57.5H93.558V47.5H83.558ZM77.308 47.5V37.5H67.308V47.5H77.308ZM77.308 66.25H67.308V76.25H77.308V66.25ZM89.808 78.75V68.75H83.558V78.75V88.75H89.808V78.75ZM83.558 78.75V68.75H77.308V78.75V88.75H83.558V78.75ZM77.308 78.75V68.75H71.058V78.75V88.75H77.308V78.75ZM71.058 78.75H81.058V72.5H71.058H61.058V78.75H71.058ZM71.058 72.5V62.5H64.808V72.5V82.5H71.058V72.5ZM64.808 72.5H74.808V66.25H64.808H54.808V72.5H64.808ZM64.808 66.25H74.808V60H64.808H54.808V66.25H64.808ZM64.808 60H74.808V53.75H64.808H54.808V60H64.808ZM64.808 53.75H74.808V47.5H64.808H54.808V53.75H64.808ZM64.808 47.5V57.5H71.058V47.5V37.5H64.808V47.5ZM71.058 47.5H81.058V41.25H71.058H61.058V47.5H71.058ZM71.058 41.25V51.25H77.308V41.25V31.25H71.058V41.25ZM77.308 41.25H87.308V35H77.308H67.308V41.25H77.308ZM77.308 35V45H83.558V35V25H77.308V35ZM83.558 35V45H89.808V35V25H83.558V35ZM89.808 35V45H96.058V35V25H89.808V35ZM96.058 35H86.058V41.25H96.058H106.058V35H96.058ZM96.058 41.25V51.25H102.308V41.25V31.25H96.058V41.25ZM102.308 41.25H92.308V47.5H102.308H112.308V41.25H102.308ZM102.308 47.5H92.308V53.75H102.308H112.308V47.5H102.308ZM102.308 53.75H92.308V60H102.308H112.308V53.75H102.308ZM102.308 60H92.308V66.25H102.308H112.308V60H102.308ZM102.308 66.25H92.308V72.5H102.308H112.308V66.25H102.308ZM102.308 72.5V62.5H96.058V72.5V82.5H102.308V72.5ZM96.058 72.5H86.058V78.75H96.058H106.058V72.5H96.058ZM96.058 78.75V68.75H89.808V78.75V88.75H96.058V78.75ZM83.558 66.25V76.25H89.808V66.25V56.25H83.558V66.25ZM89.808 66.25H99.808V60H89.808H79.808V66.25H89.808ZM89.808 60V70H96.058V60V50H89.808V60ZM96.058 60H106.058V53.75H96.058H86.058V60H96.058ZM96.058 53.75H106.058V47.5H96.058H86.058V53.75H96.058ZM96.058 47.5V37.5H89.808V47.5V57.5H96.058V47.5ZM89.808 47.5H99.808V41.25H89.808H79.808V47.5H89.808ZM89.808 41.25V31.25H83.558V41.25V51.25H89.808V41.25ZM83.558 41.25H73.558V47.5H83.558H93.558V41.25H83.558ZM83.558 47.5V37.5H77.308V47.5V57.5H83.558V47.5ZM77.308 47.5H67.308V53.75H77.308H87.308V47.5H77.308ZM77.308 53.75H67.308V60H77.308H87.308V53.75H77.308ZM77.308 60H67.308V66.25H77.308H87.308V60H77.308ZM77.308 66.25V76.25H83.558V66.25V56.25H77.308V66.25ZM124.62 69.082L130.04 60.6779L130.008 60.6573L129.976 60.6369L124.62 69.082ZM137.853 67.7148L142.944 76.322L142.952 76.3174L142.96 76.3127L137.853 67.7148ZM146.056 55.2637L156.054 55.4547L156.054 55.4455L146.056 55.2637ZM141.32 50.4297L140.215 40.4908L140.204 40.4921L141.32 50.4297ZM131.456 54.2871L136.909 62.6697L136.919 62.6633L136.929 62.6568L131.456 54.2871ZM123.497 62.0508L115.121 56.5881L115.1 56.6202L115.08 56.6525L123.497 62.0508ZM119.347 103.506L111.155 109.24L111.187 109.286L111.219 109.331L119.347 103.506ZM113.634 90.7129L103.963 93.2578L113.634 90.7129ZM111.437 75.5273L101.44 75.7788L101.441 75.8102L101.442 75.8417L111.437 75.5273ZM112.658 60.4883L102.854 58.5145L102.848 58.5461L102.842 58.5778L112.658 60.4883ZM117.101 48.1348L108.526 42.9898L108.5 43.0325L108.475 43.0754L117.101 48.1348ZM123.742 47.5L132.646 42.9489L132.586 42.8321L132.524 42.717L123.742 47.5ZM126.134 47.7441L117.846 42.1494L117.797 42.2214L117.75 42.2943L126.134 47.7441ZM129.503 43.5938L136.814 50.4169L136.819 50.4114L136.824 50.4058L129.503 43.5938ZM152.892 31.582L147.971 40.2877L148.046 40.3298L148.121 40.3706L152.892 31.582ZM158.165 48.7695L168.103 49.8826L168.106 49.8587L168.108 49.8349L158.165 48.7695ZM146.349 73.3301L139.135 66.4048L139.117 66.4236L139.099 66.4426L146.349 73.3301ZM125.255 77.1875L131.493 69.3718L106.059 49.0708L115.705 80.1515L125.255 77.1875ZM130.773 85.8789L138.078 79.0501L138.059 79.0301L138.041 79.0103L130.773 85.8789ZM136.046 94.0332L126.451 96.8479L126.461 96.8849L126.473 96.9218L136.046 94.0332ZM136.144 102.969L127.173 98.5502L127.134 98.6302L127.096 98.7108L136.144 102.969ZM131.505 107.363L128.208 97.9224L128.117 97.9541L128.027 97.9876L131.505 107.363ZM124.62 69.082L119.201 77.4862C127.314 82.7178 136.154 80.3377 142.944 76.322L137.853 67.7148L132.762 59.1077C130.872 60.2257 129.831 60.445 129.513 60.4778C129.391 60.4904 129.447 60.4687 129.619 60.5077C129.799 60.5487 129.953 60.6215 130.04 60.6779L124.62 69.082ZM137.853 67.7148L142.96 76.3127C150.541 71.8099 155.875 64.8304 156.054 55.4547L146.056 55.2637L136.058 55.0726C136.042 55.9183 135.907 57.2396 132.746 59.117L137.853 67.7148ZM146.056 55.2637L156.054 55.4455C156.108 52.4994 155.578 47.9579 152.064 44.3711C148.301 40.5305 143.484 40.1277 140.215 40.4908L141.32 50.4297L142.424 60.3685C142.378 60.3736 139.962 60.5974 137.778 58.3682C135.842 56.3927 136.069 54.4472 136.058 55.0819L146.056 55.2637ZM141.32 50.4297L140.204 40.4921C135.108 41.0641 130.347 43.0647 125.984 45.9174L131.456 54.2871L136.929 62.6568C139.337 61.0825 141.151 60.5114 142.435 60.3673L141.32 50.4297ZM131.456 54.2871L126.004 45.9045C121.623 48.7543 117.921 52.2959 115.121 56.5881L123.497 62.0508L131.874 67.5135C132.981 65.8161 134.584 64.1819 136.909 62.6697L131.456 54.2871ZM123.497 62.0508L115.08 56.6525C113.437 59.2144 111.735 63.0717 112.463 67.6319C113.24 72.494 116.356 75.6823 119.265 77.5271L124.62 69.082L129.976 60.6369C130.216 60.789 131.81 61.9591 132.213 64.4775C132.567 66.694 131.638 67.882 131.915 67.4491L123.497 62.0508ZM119.347 103.506L127.539 97.7712C125.815 95.3077 124.357 92.1647 123.305 88.168L113.634 90.7129L103.963 93.2578C105.516 99.1569 107.866 104.543 111.155 109.24L119.347 103.506ZM113.634 90.7129L123.305 88.168C122.197 83.9578 121.571 79.6446 121.432 75.213L111.437 75.5273L101.442 75.8417C101.628 81.7616 102.467 87.5721 103.963 93.2578L113.634 90.7129ZM111.437 75.5273L121.434 75.2758C121.321 70.7906 121.674 66.5039 122.473 62.3987L112.658 60.4883L102.842 58.5778C101.753 64.1732 101.292 69.9125 101.44 75.7788L111.437 75.5273ZM112.658 60.4883L122.461 62.4621C123.273 58.428 124.426 55.4113 125.727 53.1941L117.101 48.1348L108.475 43.0754C105.804 47.6291 103.995 52.848 102.854 58.5145L112.658 60.4883ZM117.101 48.1348L125.676 53.2797C126.014 52.7165 126.039 52.8167 125.658 53.1671C125.293 53.5028 123.907 54.653 121.544 54.8789C118.917 55.13 116.918 54.0795 115.879 53.2298C115.017 52.5251 114.787 51.9662 114.96 52.283L123.742 47.5L132.524 42.717C131.336 40.5362 127.384 34.2295 119.641 34.9697C116.17 35.3014 113.649 37.0396 112.12 38.4454C110.576 39.866 109.409 41.5186 108.526 42.9898L117.101 48.1348ZM123.742 47.5L114.837 52.0511C115.285 52.9277 116.036 54.2053 117.241 55.4103C118.473 56.6416 120.686 58.2815 123.886 58.608C130.515 59.2844 133.938 54.0878 134.519 53.194L126.134 47.7441L117.75 42.2943C117.886 42.0851 118.438 41.2563 119.547 40.4328C120.771 39.5236 123.002 38.4139 125.916 38.7113C128.717 38.9971 130.539 40.4234 131.383 41.2682C132.202 42.0866 132.572 42.8047 132.646 42.9489L123.742 47.5ZM126.134 47.7441L134.423 53.3389C134.941 52.5706 135.712 51.5974 136.814 50.4169L129.503 43.5938L122.193 36.7706C120.56 38.5198 119.085 40.3136 117.846 42.1494L126.134 47.7441ZM129.503 43.5938L136.824 50.4058C142.296 44.5256 145.835 42.0369 147.596 41.3057L143.761 32.0703L139.926 22.8349C134.005 25.2938 128.039 30.4874 122.182 36.7817L129.503 43.5938ZM143.761 32.0703L147.596 41.3057C148.187 41.0605 148.64 40.915 148.966 40.8318C149.293 40.7483 149.45 40.7382 149.459 40.7377C149.463 40.7375 149.297 40.7466 149.01 40.6865C148.712 40.6241 148.348 40.5003 147.971 40.2877L152.892 31.582L157.813 22.8764C151.589 19.3588 144.873 20.7806 139.926 22.8349L143.761 32.0703ZM152.892 31.582L148.121 40.3706C147.976 40.292 147.835 40.1917 147.713 40.0801C147.593 39.9701 147.527 39.8818 147.505 39.8491C147.467 39.7939 147.638 40.0223 147.824 40.7719L157.531 38.3691L167.238 35.9664C165.967 30.8333 163.11 25.7507 157.663 22.7935L152.892 31.582ZM157.531 38.3691L147.824 40.7719C148.335 42.8361 148.499 45.1232 148.222 47.7042L158.165 48.7695L168.108 49.8349C168.613 45.1242 168.354 40.4777 167.238 35.9664L157.531 38.3691ZM158.165 48.7695L148.228 47.6565C147.919 50.4094 147.001 53.6318 145.226 57.3709L154.259 61.6602L163.293 65.9494C165.814 60.639 167.5 55.2677 168.103 49.8826L158.165 48.7695ZM154.259 61.6602L145.226 57.3709C143.488 61.0308 141.439 64.0051 139.135 66.4048L146.349 73.3301L153.563 80.2554C157.509 76.1447 160.733 71.339 163.293 65.9494L154.259 61.6602ZM146.349 73.3301L139.099 66.4426C137.028 68.6224 135.11 69.7129 133.363 70.2186L136.144 79.8242L138.924 89.4299C144.6 87.7871 149.485 84.5481 153.599 80.2176L146.349 73.3301ZM136.144 79.8242L133.363 70.2186C133.211 70.2627 133.133 70.2666 133.11 70.2672C133.089 70.2678 133.057 70.2674 132.992 70.2516C132.868 70.2215 132.368 70.0701 131.493 69.3718L125.255 77.1875L119.017 85.0032C124.594 89.4548 131.519 91.5737 138.924 89.4299L136.144 79.8242ZM125.255 77.1875L115.705 80.1515C117.173 84.8829 120.027 89.0678 123.505 92.7475L130.773 85.8789L138.041 79.0103C135.919 76.7655 135.095 75.1561 134.806 74.2235L125.255 77.1875ZM130.773 85.8789L123.468 92.7077C125.781 95.1824 126.363 96.5497 126.451 96.8479L136.046 94.0332L145.642 91.2185C144.297 86.6339 141.364 82.565 138.078 79.0501L130.773 85.8789ZM136.046 94.0332L126.473 96.9218C126.853 98.1811 126.923 98.909 126.926 99.2084C126.929 99.4764 126.878 99.1494 127.173 98.5502L136.144 102.969L145.115 107.387C147.828 101.879 147.06 95.9162 145.62 91.1446L136.046 94.0332ZM136.144 102.969L127.096 98.7108C127.027 98.8561 127.071 98.7096 127.326 98.468C127.599 98.2088 127.927 98.0207 128.208 97.9224L131.505 107.363L134.802 116.804C139.718 115.087 143.165 111.534 145.192 107.227L136.144 102.969ZM131.505 107.363L128.027 97.9876C128.054 97.9777 128.091 97.9669 128.132 97.9592C128.173 97.9516 128.2 97.9504 128.207 97.9503C128.225 97.9501 128.089 97.9563 127.762 97.8609L124.962 107.461L122.162 117.061C126.279 118.262 130.686 118.333 134.983 116.739L131.505 107.363ZM124.962 107.461L127.762 97.8609C127.664 97.8322 127.607 97.8078 127.583 97.7961C127.559 97.7848 127.554 97.7802 127.559 97.7839C127.564 97.7876 127.564 97.7887 127.556 97.7806C127.548 97.772 127.52 97.7426 127.475 97.6807L119.347 103.506L111.219 109.331C113.945 113.135 117.707 115.762 122.162 117.061L124.962 107.461ZM167.685 53.8965L174.496 46.5746L174.454 46.5356L174.412 46.4971L167.685 53.8965ZM163.583 45.4492L153.706 47.0088L153.708 47.0223L163.583 45.4492ZM169.589 33.9258L163.097 26.3201L163.071 26.3418L163.046 26.3636L169.589 33.9258ZM207.333 25.5762L198.624 30.4894L198.647 30.5315L198.672 30.5734L207.333 25.5762ZM209.042 34.0234L199.097 32.9766L199.092 33.0284L199.087 33.0803L209.042 34.0234ZM198.74 46.9141L197.964 36.9442L197.948 36.9454L197.931 36.9468L198.74 46.9141ZM185.068 49.6484L181.905 40.1616L181.895 40.1652L181.884 40.1689L185.068 49.6484ZM184.286 55.8496L190.261 47.8308L190.2 47.7854L190.139 47.741L184.286 55.8496ZM190.634 60.4883L196.485 52.3788L190.634 60.4883ZM193.954 67.7148L203.874 68.9785L203.878 68.9467L203.882 68.9149L193.954 67.7148ZM184.238 79.5312L179.948 70.498L184.238 79.5312ZM169.931 81.6309L166.428 90.9973L166.451 91.0058L166.474 91.0143L169.931 81.6309ZM168.369 77.1875L163.975 68.2045L163.955 68.214L163.936 68.2236L168.369 77.1875ZM176.913 71.4746L170.406 63.882L170.383 63.9013L170.361 63.9207L176.913 71.4746ZM177.841 61.709L170.687 68.6964L170.77 68.7805L170.854 68.8627L177.841 61.709ZM172.763 57.7539L167.376 66.1791L167.456 66.2303L167.537 66.2799L172.763 57.7539ZM167.685 53.8965L174.412 46.4971C174.37 46.4594 173.79 45.9549 173.459 43.8761L163.583 45.4492L153.708 47.0223C154.549 52.3004 156.703 57.4273 160.958 61.2959L167.685 53.8965ZM163.583 45.4492L173.461 43.8896C173.552 44.4628 173.345 44.7303 173.513 44.407C173.748 43.9558 174.436 42.9555 176.132 41.488L169.589 33.9258L163.046 26.3636C157.514 31.1501 152.309 38.1613 153.706 47.0088L163.583 45.4492ZM169.589 33.9258L176.082 41.5314C179.198 38.8717 183.07 36.5017 187.825 34.4996L183.945 25.2832L180.064 16.0668C173.686 18.7522 167.989 22.144 163.097 26.3201L169.589 33.9258ZM183.945 25.2832L187.825 34.4996C192.409 32.5694 196.377 31.7676 199.814 31.7676V21.7676V11.7676C193.225 11.7676 186.613 13.3095 180.064 16.0668L183.945 25.2832ZM199.814 21.7676V31.7676C200.453 31.7676 200.339 31.8829 199.861 31.6407C199.618 31.5175 199.352 31.3364 199.106 31.0988C198.863 30.8634 198.709 30.6401 198.624 30.4894L207.333 25.5762L216.043 20.663C212.408 14.2189 206.033 11.7676 199.814 11.7676V21.7676ZM207.333 25.5762L198.672 30.5734C199.015 31.1691 199.216 31.8482 199.097 32.9766L209.042 34.0234L218.987 35.0703C219.52 30.0138 218.581 25.0614 215.995 20.5789L207.333 25.5762ZM209.042 34.0234L199.087 33.0803C198.961 34.4138 198.525 35.654 197.643 36.9304L205.869 42.6172L214.094 48.304C216.858 44.3069 218.538 39.818 218.998 34.9666L209.042 34.0234ZM205.869 42.6172L197.643 36.9304C197.524 37.1021 197.451 37.1755 197.439 37.1874C197.429 37.1966 197.468 37.1581 197.557 37.1044C197.648 37.0496 197.75 37.004 197.847 36.9736C197.942 36.9439 197.989 36.9423 197.964 36.9442L198.74 46.9141L199.515 56.8839C205.744 56.3995 210.736 53.1605 214.094 48.304L205.869 42.6172ZM198.74 46.9141L197.931 36.9468C192.366 37.398 187.014 38.4587 181.905 40.1616L185.068 49.6484L188.23 59.1353C191.715 57.9736 195.478 57.2114 199.548 56.8814L198.74 46.9141ZM185.068 49.6484L181.884 40.1689C180.294 40.7029 178.308 41.5347 176.503 42.9313C174.636 44.3749 172.258 47.0094 171.753 51.023C171.257 54.9604 172.843 58.045 174.154 59.8404C175.457 61.624 177.069 62.9732 178.434 63.9583L184.286 55.8496L190.139 47.741C189.632 47.3751 189.873 47.4528 190.305 48.0442C190.746 48.6473 191.962 50.6191 191.596 53.5229C191.22 56.5029 189.473 58.1832 188.738 58.752C188.063 59.2738 187.71 59.3101 188.252 59.128L185.068 49.6484ZM184.286 55.8496L178.312 63.8684C180.028 65.1474 182.189 66.7263 184.783 68.5978L190.634 60.4883L196.485 52.3788C193.936 50.5393 191.865 49.0257 190.261 47.8308L184.286 55.8496ZM190.634 60.4883L184.783 68.5978C184.944 68.7136 184.603 68.5075 184.306 67.8615C183.994 67.1824 184.013 66.6322 184.027 66.5148L193.954 67.7148L203.882 68.9149C204.254 65.8353 203.899 62.5995 202.48 59.5115C201.076 56.4567 198.896 54.1184 196.485 52.3788L190.634 60.4883ZM193.954 67.7148L184.035 66.4512C183.925 67.3127 183.582 68.7722 179.948 70.498L184.238 79.5312L188.527 88.5645C196.547 84.7564 202.682 78.3384 203.874 68.9785L193.954 67.7148ZM184.238 79.5312L179.948 70.498C177.649 71.5896 175.972 72.0711 174.839 72.2373C174.291 72.3178 173.92 72.317 173.697 72.2995C173.482 72.2826 173.394 72.2495 173.388 72.2474L169.931 81.6309L166.474 91.0143C173.909 93.7533 181.739 91.788 188.527 88.5645L184.238 79.5312ZM169.931 81.6309L173.434 72.2644C172.781 72.0203 172.769 71.9536 173.08 72.1581C173.151 72.2054 175.014 73.3573 175.971 76.0796C176.519 77.6362 176.65 79.4019 176.236 81.1476C175.845 82.7977 175.08 83.9701 174.5 84.6701C173.482 85.8983 172.534 86.2836 172.801 86.1514L168.369 77.1875L163.936 68.2236C162.722 68.8238 160.729 69.9436 159.1 71.9083C157.125 74.2916 155.54 78.2662 157.104 82.7143C158.321 86.1772 160.88 88.0717 162.083 88.8636C163.525 89.8128 165.079 90.4927 166.428 90.9973L169.931 81.6309ZM168.369 77.1875L172.762 86.1705C176.59 84.2982 180.157 81.899 183.466 79.0285L176.913 71.4746L170.361 63.9207C168.266 65.7377 166.136 67.1471 163.975 68.2045L168.369 77.1875ZM176.913 71.4746L183.421 79.0672C186.125 76.7497 190.653 72.0717 190.103 65.3387L180.136 66.1523L170.169 66.966C170.019 65.1223 170.644 63.8803 170.874 63.4997C171.073 63.1718 171.066 63.3156 170.406 63.882L176.913 71.4746ZM180.136 66.1523L190.103 65.3387C189.735 60.8357 187.553 57.2165 184.829 54.5552L177.841 61.709L170.854 68.8627C170.918 68.9252 170.765 68.7934 170.58 68.4341C170.381 68.05 170.216 67.5408 170.169 66.966L180.136 66.1523ZM177.841 61.709L184.995 54.7216C182.945 52.6233 180.569 50.8094 177.989 49.2279L172.763 57.7539L167.537 66.2799C168.993 67.1723 170.003 67.9951 170.687 68.6964L177.841 61.709ZM172.763 57.7539L178.15 49.3287C176.559 48.3118 175.367 47.3853 174.496 46.5746L167.685 53.8965L160.874 61.2184C162.802 63.0119 164.996 64.657 167.376 66.1791L172.763 57.7539ZM213.874 78.75H203.874V88.75H213.874V78.75ZM213.874 66.25V56.25H203.874V66.25H213.874ZM226.374 66.25H236.374V56.25H226.374V66.25ZM226.374 72.5V82.5H236.374V72.5H226.374ZM220.124 72.5V62.5H210.124V72.5H220.124ZM220.124 78.75V88.75H230.124V78.75H220.124ZM213.874 60H203.874V70H213.874V60ZM213.874 28.75V18.75H203.874V28.75H213.874ZM220.124 28.75V38.75H230.124V28.75H220.124ZM220.124 10V0H210.124V10H220.124ZM232.624 10H242.624V0H232.624V10ZM232.624 35V45H242.624V35H232.624ZM226.374 35V25H216.374V35H226.374ZM226.374 47.5V57.5H236.374V47.5H226.374ZM220.124 47.5V37.5H210.124V47.5H220.124ZM220.124 60V70H230.124V60H220.124ZM213.874 78.75H223.874V72.5H213.874H203.874V78.75H213.874ZM213.874 72.5H223.874V66.25H213.874H203.874V72.5H213.874ZM213.874 66.25V76.25H220.124V66.25V56.25H213.874V66.25ZM220.124 66.25V76.25H226.374V66.25V56.25H220.124V66.25ZM226.374 66.25H216.374V72.5H226.374H236.374V66.25H226.374ZM226.374 72.5V62.5H220.124V72.5V82.5H226.374V72.5ZM220.124 72.5H210.124V78.75H220.124H230.124V72.5H220.124ZM220.124 78.75V68.75H213.874V78.75V88.75H220.124V78.75ZM213.874 60H223.874V53.75H213.874H203.874V60H213.874ZM213.874 53.75H223.874V47.5H213.874H203.874V53.75H213.874ZM213.874 47.5H223.874V41.25H213.874H203.874V47.5H213.874ZM213.874 41.25H223.874V35H213.874H203.874V41.25H213.874ZM213.874 35H223.874V28.75H213.874H203.874V35H213.874ZM213.874 28.75V38.75H220.124V28.75V18.75H213.874V28.75ZM220.124 28.75H230.124V22.5H220.124H210.124V28.75H220.124ZM220.124 22.5H230.124V16.25H220.124H210.124V22.5H220.124ZM220.124 16.25H230.124V10H220.124H210.124V16.25H220.124ZM220.124 10V20H226.374V10V0H220.124V10ZM226.374 10V20H232.624V10V0H226.374V10ZM232.624 10H222.624V16.25H232.624H242.624V10H232.624ZM232.624 16.25H222.624V22.5H232.624H242.624V16.25H232.624ZM232.624 22.5H222.624V28.75H232.624H242.624V22.5H232.624ZM232.624 28.75H222.624V35H232.624H242.624V28.75H232.624ZM232.624 35V25H226.374V35V45H232.624V35ZM226.374 35H216.374V41.25H226.374H236.374V35H226.374ZM226.374 41.25H216.374V47.5H226.374H236.374V41.25H226.374ZM226.374 47.5V37.5H220.124V47.5V57.5H226.374V47.5ZM220.124 47.5H210.124V53.75H220.124H230.124V47.5H220.124ZM220.124 53.75H210.124V60H220.124H230.124V53.75H220.124ZM220.124 60V50H213.874V60V70H220.124V60Z" fill="#F6FFF7" mask="url(#path-1-outside-1_63_103)"/>
</g>
<defs>
<filter id="filter0_d_63_103" x="0" y="0" width="244.624" height="121.95" filterUnits="userSpaceOnUse" color-interpolation-filters="sRGB">
<feFlood flood-opacity="0" result="BackgroundImageFix"/>
<feColorMatrix in="SourceAlpha" type="matrix" values="0 0 0 0 0 0 0 0 0 0 0 0 0 0 0 0 0 0 127 0" result="hardAlpha"/>
<feOffset dx="1" dy="3"/>
<feGaussianBlur stdDeviation="0.5"/>
<feComposite in2="hardAlpha" operator="out"/>
<feColorMatrix type="matrix" values="0 0 0 0 0.919509 0 0 0 0 0.68528 0 0 0 0 0.720036 0 0 0 1 0"/>
<feBlend mode="normal" in2="BackgroundImageFix" result="effect1_dropShadow_63_103"/>
<feBlend mode="normal" in="SourceGraphic" in2="effect1_dropShadow_63_103" result="shape"/>
</filter>
<clipPath id="paint0_diamond_63_103_clip_path"><path d="M20.1322 62.3438C25.5684 65.1432 30.9558 66.0872 36.2943 65.1758C41.6654 64.2643 45.8321 62.5716 48.7943 60.0977C51.7566 57.6237 52.961 54.9219 52.4076 51.9922C51.8868 49.0299 48.4525 46.9303 42.1049 45.6934C35.92 44.5215 30.8907 44.5215 27.017 45.6934C23.1758 46.8652 20.3926 48.5091 18.6674 50.625C16.9421 52.7409 16.226 54.9544 16.5189 57.2656C16.8119 59.5768 18.0163 61.2695 20.1322 62.3438ZM22.2318 79.2871C16.9258 77.9525 13.3614 74.6647 11.5385 69.4238C9.74809 64.1829 9.52022 58.6328 10.8549 52.7734C12.1895 46.8815 15.0052 41.4941 19.3021 36.6113C23.6316 31.696 29.2631 28.8802 36.1967 28.1641C46.3855 27.1224 52.9447 28.7826 55.8744 33.1445C58.8041 37.474 59.8783 43.3496 59.097 50.7715C58.8041 53.3105 57.7136 56.4844 55.8256 60.293C53.9701 64.1016 51.431 67.6497 48.2084 70.9375C45.0183 74.2253 41.2097 76.7806 36.7826 78.6035C32.3881 80.4264 27.5378 80.6543 22.2318 79.2871ZM89.808 78.75H83.558H77.308H71.058V72.5H64.808V66.25V60V53.75V47.5H71.058V41.25H77.308V35H83.558H89.808H96.058V41.25H102.308V47.5V53.75V60V66.25V72.5H96.058V78.75H89.808ZM83.558 66.25H89.808V60H96.058V53.75V47.5H89.808V41.25H83.558V47.5H77.308V53.75V60V66.25H83.558ZM124.62 69.082C128.104 71.3281 132.514 70.8724 137.853 67.7148C143.224 64.5247 145.958 60.3743 146.056 55.2637C146.121 51.6829 144.542 50.0716 141.32 50.4297C138.13 50.7878 134.842 52.0736 131.456 54.2871C128.104 56.4681 125.451 59.056 123.497 62.0508C121.577 65.0456 121.951 67.3893 124.62 69.082ZM119.347 103.506C116.841 99.9251 114.936 95.6608 113.634 90.7129C112.332 85.765 111.6 80.7031 111.437 75.5273C111.307 70.3516 111.714 65.3385 112.658 60.4883C113.634 55.638 115.115 51.5202 117.101 48.1348C119.542 44.0658 121.756 43.8542 123.742 47.5C124.49 48.9648 125.288 49.0462 126.134 47.7441C127.013 46.4421 128.136 45.0586 129.503 43.5938C135.167 37.5065 139.92 33.6654 143.761 32.0703C147.602 30.4753 150.646 30.3125 152.892 31.582C155.171 32.819 156.717 35.0814 157.531 38.3691C158.344 41.6569 158.556 45.1237 158.165 48.7695C157.71 52.8385 156.408 57.1354 154.259 61.6602C152.111 66.1849 149.474 70.0749 146.349 73.3301C143.257 76.5853 139.855 78.75 136.144 79.8242C132.433 80.8984 128.803 80.0195 125.255 77.1875C126.134 80.0195 127.973 82.9167 130.773 85.8789C133.572 88.8737 135.33 91.5918 136.046 94.0332C137.186 97.8092 137.218 100.788 136.144 102.969C135.102 105.182 133.556 106.647 131.505 107.363C129.487 108.112 127.306 108.145 124.962 107.461C122.619 106.777 120.747 105.459 119.347 103.506ZM167.685 53.8965C165.536 51.9434 164.169 49.1276 163.583 45.4492C162.997 41.7383 164.999 37.8971 169.589 33.9258C173.593 30.5078 178.378 27.627 183.945 25.2832C189.511 22.9395 194.801 21.7676 199.814 21.7676C203.395 21.7676 205.901 23.0371 207.333 25.5762C208.798 28.1152 209.368 30.931 209.042 34.0234C208.749 37.1159 207.691 39.9805 205.869 42.6172C204.046 45.2539 201.669 46.6862 198.74 46.9141C193.922 47.3047 189.365 48.2161 185.068 49.6484C180.803 51.0807 180.543 53.1478 184.286 55.8496C185.947 57.0866 188.063 58.6328 190.634 60.4883C193.206 62.3438 194.313 64.7526 193.954 67.7148C193.303 72.8255 190.064 76.7643 184.238 79.5312C178.411 82.2982 173.642 82.998 169.931 81.6309C165.927 80.1335 165.406 78.6523 168.369 77.1875C171.363 75.7227 174.212 73.8184 176.913 71.4746C179.192 69.5215 180.266 67.7474 180.136 66.1523C180.006 64.5573 179.241 63.0762 177.841 61.709C176.474 60.3092 174.781 58.9909 172.763 57.7539C170.777 56.4844 169.085 55.1986 167.685 53.8965ZM213.874 78.75V72.5V66.25H220.124H226.374V72.5H220.124V78.75H213.874ZM213.874 60V53.75V47.5V41.25V35V28.75H220.124V22.5V16.25V10H226.374H232.624V16.25V22.5V28.75V35H226.374V41.25V47.5H220.124V53.75V60H213.874Z"/></clipPath><linearGradient id="paint0_diamond_63_103" x1="0" y1="0" x2="500" y2="500" gradientUnits="userSpaceOnUse">
<stop stop-color="#F8ABC7"/>
<stop offset="1" stop-color="#C6EB8D"/>
</linearGradient>
</defs>
</svg>
